G04 DipTrace 3.3.1.3*
G04 Bottom.gbr*
%MOMM*%
G04 #@! TF.FileFunction,Copper,L2,Bot*
G04 #@! TF.Part,Single*
%FSLAX35Y35*%
G04*
G71*
G90*
G75*
G01*
G04 Bottom*
%LPD*%
G36*
X1050000Y1171000D2*
Y1200000D1*
X0D1*
Y0D1*
X1200000D1*
Y400000D1*
X1150000D1*
X1149452Y389547D1*
X1147815Y379209D1*
X1145106Y369098D1*
X1141355Y359326D1*
X1136603Y350000D1*
X1130902Y341221D1*
X1124314Y333087D1*
X1116913Y325686D1*
X1108779Y319098D1*
X1100000Y313397D1*
X1090674Y308645D1*
X1080902Y304894D1*
X1070791Y302185D1*
X1060453Y300548D1*
X1050000Y300000D1*
X1039547Y300548D1*
X1029209Y302185D1*
X1019098Y304894D1*
X1009326Y308645D1*
X1000000Y313397D1*
X991221Y319098D1*
X983087Y325686D1*
X975686Y333087D1*
X969098Y341221D1*
X963397Y350000D1*
X958645Y359326D1*
X954894Y369098D1*
X952185Y379209D1*
X950548Y389547D1*
X950000Y400000D1*
X950548Y410453D1*
X952185Y420791D1*
X954894Y430902D1*
X958645Y440674D1*
X963397Y450000D1*
X969098Y458779D1*
X975686Y466913D1*
X983087Y474314D1*
X991221Y480902D1*
X1000000Y486603D1*
X1009326Y491355D1*
X1019098Y495106D1*
X1029209Y497815D1*
X1039547Y499452D1*
X1050000Y500000D1*
X1060453Y499452D1*
X1070791Y497815D1*
X1080902Y495106D1*
X1090674Y491355D1*
X1100000Y486603D1*
X1108779Y480902D1*
X1116913Y474314D1*
X1124314Y466913D1*
X1130902Y458779D1*
X1136603Y450000D1*
X1141355Y440674D1*
X1145106Y430902D1*
X1147815Y420791D1*
X1149452Y410453D1*
X1150000Y400000D1*
X1200000D1*
Y1200000D1*
X1050000D1*
Y1171000D1*
X1052195Y1170885D1*
X1054366Y1170541D1*
X1056489Y1169972D1*
X1058541Y1169185D1*
X1060500Y1168187D1*
X1062343Y1166989D1*
X1064052Y1165606D1*
X1065606Y1164052D1*
X1066989Y1162344D1*
X1068186Y1160500D1*
X1069184Y1158541D1*
X1069972Y1156489D1*
X1070541Y1154366D1*
X1070885Y1152195D1*
X1071000Y1150000D1*
X1070885Y1147805D1*
X1070541Y1145634D1*
X1069972Y1143511D1*
X1069184Y1141459D1*
X1068186Y1139500D1*
X1066989Y1137657D1*
X1065606Y1135948D1*
X1064051Y1134394D1*
X1062343Y1133011D1*
X1060500Y1131814D1*
X1058541Y1130816D1*
X1056489Y1130028D1*
X1054366Y1129459D1*
X1052195Y1129115D1*
X1050000Y1129000D1*
X1047805Y1129115D1*
X1045633Y1129459D1*
X1043510Y1130028D1*
X1041458Y1130816D1*
X1039500Y1131814D1*
X1037656Y1133011D1*
X1035948Y1134394D1*
X1034394Y1135949D1*
X1033010Y1137657D1*
X1031813Y1139500D1*
X1030815Y1141459D1*
X1030027Y1143511D1*
X1029459Y1145634D1*
X1029115Y1147805D1*
X1029000Y1150001D1*
X1029115Y1152196D1*
X1029459Y1154367D1*
X1030028Y1156490D1*
X1030815Y1158542D1*
X1031813Y1160501D1*
X1033011Y1162344D1*
X1034394Y1164052D1*
X1035948Y1165607D1*
X1037656Y1166990D1*
X1039500Y1168187D1*
X1041458Y1169185D1*
X1043511Y1169973D1*
X1045634Y1170542D1*
X1047805Y1170885D1*
X1050000Y1171000D1*
G37*
M02*
