G04 DipTrace 3.3.1.3*
G04 sema_print_gerb.gbr*
%MOMM*%
G04 #@! TF.FileFunction,Copper,L1,Top*
G04 #@! TF.Part,Single*
G04 #@! TA.AperFunction,Nonconductor*
%ADD13C,0.00033*%
%FSLAX35Y35*%
G04*
G71*
G90*
G75*
G01*
G04 Top*
%LPD*%
X500000Y500000D2*
D13*
Y800000D1*
X400000D1*
Y400000D1*
X700000D1*
Y1000000D1*
X200000D1*
Y200000D1*
X900000D1*
Y1200000D1*
X0D1*
Y0D1*
X1100000D1*
Y1200000D1*
X1000000D1*
Y1150000D1*
X1029000D1*
G02X1071000Y1150000I21000J0D01*
G01*
G02X1029000Y1150000I-21000J0D01*
G01*
X1000000D1*
Y400000D1*
X1029000D1*
G02X1071000Y400000I21000J0D01*
G01*
G02X1029000Y400000I-21000J0D01*
G01*
X1000000D1*
Y100000D1*
X100000D1*
Y1100000D1*
X800000D1*
Y300000D1*
X300000D1*
Y900000D1*
X600000D1*
Y500000D1*
X500000D1*
G04 Bottom*
X0Y0D2*
X1200000D1*
Y400000D1*
X1150000D1*
G02X950000Y400000I-100000J0D01*
G01*
G02X1150000Y400000I100000J0D01*
G01*
X1200000D1*
Y1200000D1*
X1050000D1*
Y1171000D1*
G02X1071000Y1150000I0J-21000D01*
G01*
G02X1050000Y1171000I-21000J0D01*
G01*
Y1200000D1*
X0D1*
Y0D1*
M02*
